<svg width="800" height="800" viewBox="0 0 800 800" fill="none" xmlns="http://www.w3.org/2000/svg">
<rect width="800" height="800" rx="100" fill="url(#paint0_linear_1555_15)"/>
<rect x="150" y="153" width="500" height="500" fill="black"/>
<path d="M271.469 371.438L272.172 386.344H270.391C270.047 383.719 269.578 381.844 268.984 380.719C268.016 378.906 266.719 377.578 265.094 376.734C263.5 375.859 261.391 375.422 258.766 375.422H249.812V423.984C249.812 427.891 250.234 430.328 251.078 431.297C252.266 432.609 254.094 433.266 256.562 433.266H258.766V435H231.812V433.266H234.062C236.75 433.266 238.656 432.453 239.781 430.828C240.469 429.828 240.812 427.547 240.812 423.984V375.422H233.172C230.203 375.422 228.094 375.641 226.844 376.078C225.219 376.672 223.828 377.812 222.672 379.5C221.516 381.188 220.828 383.469 220.609 386.344H218.828L219.578 371.438H271.469ZM290.219 368.344V399.75C293.688 395.938 296.438 393.5 298.469 392.438C300.5 391.344 302.531 390.797 304.562 390.797C307 390.797 309.094 391.469 310.844 392.812C312.594 394.156 313.891 396.266 314.734 399.141C315.328 401.141 315.625 404.797 315.625 410.109V425.297C315.625 428.016 315.844 429.875 316.281 430.875C316.594 431.625 317.125 432.219 317.875 432.656C318.625 433.094 320 433.312 322 433.312V435H300.906V433.312H301.891C303.891 433.312 305.281 433.016 306.062 432.422C306.844 431.797 307.391 430.891 307.703 429.703C307.797 429.203 307.844 427.734 307.844 425.297V410.109C307.844 405.422 307.594 402.344 307.094 400.875C306.625 399.406 305.859 398.312 304.797 397.594C303.734 396.844 302.453 396.469 300.953 396.469C299.422 396.469 297.828 396.875 296.172 397.688C294.516 398.5 292.531 400.141 290.219 402.609V425.297C290.219 428.234 290.375 430.062 290.688 430.781C291.031 431.5 291.641 432.109 292.516 432.609C293.422 433.078 294.969 433.312 297.156 433.312V435H275.875V433.312C277.781 433.312 279.281 433.016 280.375 432.422C281 432.109 281.5 431.516 281.875 430.641C282.25 429.766 282.438 427.984 282.438 425.297V386.438C282.438 381.531 282.312 378.516 282.062 377.391C281.844 376.266 281.484 375.5 280.984 375.094C280.516 374.688 279.875 374.484 279.062 374.484C278.406 374.484 277.344 374.734 275.875 375.234L275.219 373.594L288.062 368.344H290.219ZM332.828 408.234C332.797 414.609 334.344 419.609 337.469 423.234C340.594 426.859 344.266 428.672 348.484 428.672C351.297 428.672 353.734 427.906 355.797 426.375C357.891 424.812 359.641 422.156 361.047 418.406L362.5 419.344C361.844 423.625 359.938 427.531 356.781 431.062C353.625 434.562 349.672 436.312 344.922 436.312C339.766 436.312 335.344 434.312 331.656 430.312C328 426.281 326.172 420.875 326.172 414.094C326.172 406.75 328.047 401.031 331.797 396.938C335.578 392.812 340.312 390.75 346 390.75C350.812 390.75 354.766 392.344 357.859 395.531C360.953 398.688 362.5 402.922 362.5 408.234H332.828ZM332.828 405.516H352.703C352.547 402.766 352.219 400.828 351.719 399.703C350.938 397.953 349.766 396.578 348.203 395.578C346.672 394.578 345.062 394.078 343.375 394.078C340.781 394.078 338.453 395.094 336.391 397.125C334.359 399.125 333.172 401.922 332.828 405.516ZM384.906 374.906V399.891H396.484C399.141 399.891 401.078 399.312 402.297 398.156C403.547 396.969 404.375 394.641 404.781 391.172H406.516V412.688H404.781C404.75 410.219 404.422 408.406 403.797 407.25C403.203 406.094 402.359 405.234 401.266 404.672C400.203 404.078 398.609 403.781 396.484 403.781H384.906V423.75C384.906 426.969 385.109 429.094 385.516 430.125C385.828 430.906 386.484 431.578 387.484 432.141C388.859 432.891 390.297 433.266 391.797 433.266H394.094V435H366.812V433.266H369.062C371.688 433.266 373.594 432.5 374.781 430.969C375.531 429.969 375.906 427.562 375.906 423.75V382.688C375.906 379.469 375.703 377.344 375.297 376.312C374.984 375.531 374.344 374.859 373.375 374.297C372.031 373.547 370.594 373.172 369.062 373.172H366.812V371.438H414.109L414.719 385.406H413.078C412.266 382.438 411.312 380.266 410.219 378.891C409.156 377.484 407.828 376.469 406.234 375.844C404.672 375.219 402.234 374.906 398.922 374.906H384.906ZM432.625 368.344C433.938 368.344 435.047 368.812 435.953 369.75C436.891 370.656 437.359 371.766 437.359 373.078C437.359 374.391 436.891 375.516 435.953 376.453C435.047 377.391 433.938 377.859 432.625 377.859C431.312 377.859 430.188 377.391 429.25 376.453C428.312 375.516 427.844 374.391 427.844 373.078C427.844 371.766 428.297 370.656 429.203 369.75C430.141 368.812 431.281 368.344 432.625 368.344ZM436.516 390.797V425.297C436.516 427.984 436.703 429.781 437.078 430.688C437.484 431.562 438.062 432.219 438.812 432.656C439.594 433.094 441 433.312 443.031 433.312V435H422.172V433.312C424.266 433.312 425.672 433.109 426.391 432.703C427.109 432.297 427.672 431.625 428.078 430.688C428.516 429.75 428.734 427.953 428.734 425.297V408.75C428.734 404.094 428.594 401.078 428.312 399.703C428.094 398.703 427.75 398.016 427.281 397.641C426.812 397.234 426.172 397.031 425.359 397.031C424.484 397.031 423.422 397.266 422.172 397.734L421.516 396.047L434.453 390.797H436.516ZM446.219 392.062H466.422V393.797H465.109C463.891 393.797 462.953 394.094 462.297 394.688C461.672 395.281 461.359 396.078 461.359 397.078C461.359 398.172 461.688 399.469 462.344 400.969L472.328 424.688L482.359 400.078C483.078 398.328 483.438 397 483.438 396.094C483.438 395.656 483.312 395.297 483.062 395.016C482.719 394.547 482.281 394.234 481.75 394.078C481.219 393.891 480.141 393.797 478.516 393.797V392.062H492.531V393.797C490.906 393.922 489.781 394.25 489.156 394.781C488.062 395.719 487.078 397.281 486.203 399.469L470.969 436.312H469.047L453.719 400.078C453.031 398.391 452.375 397.188 451.75 396.469C451.125 395.719 450.328 395.094 449.359 394.594C448.828 394.312 447.781 394.047 446.219 393.797V392.062ZM503.641 408.234C503.609 414.609 505.156 419.609 508.281 423.234C511.406 426.859 515.078 428.672 519.297 428.672C522.109 428.672 524.547 427.906 526.609 426.375C528.703 424.812 530.453 422.156 531.859 418.406L533.312 419.344C532.656 423.625 530.75 427.531 527.594 431.062C524.438 434.562 520.484 436.312 515.734 436.312C510.578 436.312 506.156 434.312 502.469 430.312C498.812 426.281 496.984 420.875 496.984 414.094C496.984 406.75 498.859 401.031 502.609 396.938C506.391 392.812 511.125 390.75 516.812 390.75C521.625 390.75 525.578 392.344 528.672 395.531C531.766 398.688 533.312 402.922 533.312 408.234H503.641ZM503.641 405.516H523.516C523.359 402.766 523.031 400.828 522.531 399.703C521.75 397.953 520.578 396.578 519.016 395.578C517.484 394.578 515.875 394.078 514.188 394.078C511.594 394.078 509.266 395.094 507.203 397.125C505.172 399.125 503.984 401.922 503.641 405.516ZM545.734 371.438H579.812V373.219L558.625 436.312H553.375L572.359 379.078H554.875C551.344 379.078 548.828 379.5 547.328 380.344C544.703 381.781 542.594 384 541 387L539.641 386.484L545.734 371.438Z" fill="white"/>
<defs>
<linearGradient id="paint0_linear_1555_15" x1="400" y1="0" x2="400" y2="800" gradientUnits="userSpaceOnUse">
<stop offset="0.12501" stop-color="#097CF9"/>
<stop offset="0.375005" stop-color="#8556AA"/>
<stop offset="0.625005" stop-color="#F97A12"/>
<stop offset="0.875005" stop-color="#FE315D"/>
</linearGradient>
</defs>
</svg>
