<svg width="800" height="800" viewBox="0 0 800 800" fill="none" xmlns="http://www.w3.org/2000/svg">
<rect width="800" height="800" rx="400" fill="url(#paint0_linear_1481_8)"/>
<rect x="150" y="153" width="500" height="500" rx="75" fill="black"/>
<path d="M261.23 334.961C265.397 335.091 269.043 335.156 272.168 335.156C275.293 335.026 277.832 334.961 279.785 334.961H285.449C286.882 334.831 288.639 334.766 290.723 334.766C292.546 334.766 294.759 334.766 297.363 334.766C299.967 334.766 302.962 334.831 306.348 334.961C307.389 338.607 308.561 342.188 309.863 345.703C311.296 349.089 312.533 352.148 313.574 354.883C314.876 358.138 316.178 361.198 317.48 364.062C318.783 366.927 320.345 370.378 322.168 374.414C323.73 377.799 325.618 381.966 327.832 386.914C330.046 391.732 332.65 397.266 335.645 403.516C337.077 399.479 338.379 395.768 339.551 392.383C340.853 388.997 341.96 386.068 342.871 383.594C343.913 380.729 344.759 378.125 345.41 375.781C346.061 373.438 346.777 370.573 347.559 367.188C348.21 364.323 348.926 360.872 349.707 356.836C350.618 352.799 351.53 348.112 352.441 342.773C356.217 342.773 359.603 342.773 362.598 342.773C365.592 342.773 368.197 342.708 370.41 342.578C372.884 342.578 375.098 342.513 377.051 342.383C379.134 342.383 381.934 342.253 385.449 341.992C388.444 341.732 392.415 341.536 397.363 341.406C402.441 341.146 408.691 340.82 416.113 340.43C413.379 342.383 411.165 344.336 409.473 346.289C407.91 348.112 406.673 349.74 405.762 351.172C404.72 352.865 404.069 354.492 403.809 356.055C403.548 357.357 403.288 360.352 403.027 365.039C402.897 369.727 402.702 375.326 402.441 381.836C402.311 388.216 402.181 395.052 402.051 402.344C402.051 409.635 402.116 416.536 402.246 423.047C402.376 429.557 402.572 435.221 402.832 440.039C403.223 444.727 403.743 447.721 404.395 449.023C405.306 450.586 406.543 452.409 408.105 454.492C409.538 456.315 411.361 458.398 413.574 460.742C415.918 463.086 418.978 465.69 422.754 468.555C416.764 468.815 411.751 469.01 407.715 469.141C403.809 469.271 400.553 469.401 397.949 469.531C394.954 469.661 392.546 469.727 390.723 469.727C388.77 469.727 386.1 469.792 382.715 469.922C379.72 470.052 375.749 470.247 370.801 470.508C365.853 470.638 359.473 470.898 351.66 471.289C353.483 469.206 355.176 467.122 356.738 465.039C358.301 462.956 359.603 461.068 360.645 459.375C361.947 457.422 363.053 455.534 363.965 453.711C364.876 451.237 365.592 446.745 366.113 440.234C366.634 434.635 367.025 426.628 367.285 416.211C367.546 405.664 367.546 391.536 367.285 373.828C364.811 377.865 362.598 381.901 360.645 385.938C358.822 389.844 357.194 393.424 355.762 396.68C354.199 400.456 352.767 404.102 351.465 407.617C350.163 411.263 348.796 415.299 347.363 419.727C346.061 423.503 344.499 427.995 342.676 433.203C340.983 438.411 339.03 444.141 336.816 450.391L329.395 450.781C328.353 445.573 327.311 440.885 326.27 436.719C325.228 432.422 324.186 428.776 323.145 425.781C321.973 422.266 320.801 419.141 319.629 416.406C318.327 413.672 316.895 410.612 315.332 407.227C313.9 404.362 312.142 400.977 310.059 397.07C308.105 393.164 305.827 388.802 303.223 383.984C301.921 397.266 301.139 408.073 300.879 416.406C300.618 424.609 300.618 430.99 300.879 435.547C301.139 441.016 301.53 444.987 302.051 447.461C302.832 449.674 304.069 452.148 305.762 454.883C307.194 457.227 309.147 460.026 311.621 463.281C314.225 466.406 317.546 469.922 321.582 473.828C318.717 473.828 315.723 473.828 312.598 473.828C309.473 473.828 306.608 473.893 304.004 474.023C300.879 474.154 297.819 474.219 294.824 474.219C291.699 474.349 288.053 474.544 283.887 474.805C280.241 475.065 275.879 475.326 270.801 475.586C265.723 475.846 259.863 476.302 253.223 476.953C256.087 475.13 258.431 473.372 260.254 471.68C262.077 469.857 263.509 468.229 264.551 466.797C265.853 465.104 266.829 463.411 267.48 461.719C267.871 460.677 268.197 458.398 268.457 454.883C268.848 451.367 269.173 447.07 269.434 441.992C269.824 436.914 270.085 431.25 270.215 425C270.475 418.75 270.671 412.435 270.801 406.055C271.061 399.544 271.257 393.229 271.387 387.109C271.517 380.859 271.582 375.26 271.582 370.312C271.712 365.234 271.777 361.003 271.777 357.617C271.777 354.232 271.777 352.083 271.777 351.172C271.387 349.219 270.801 347.266 270.02 345.312C269.368 343.62 268.327 341.862 266.895 340.039C265.462 338.216 263.574 336.523 261.23 334.961ZM413.77 336.328C418.327 336.849 422.168 337.24 425.293 337.5C428.418 337.63 430.892 337.76 432.715 337.891C434.928 338.021 436.686 338.086 437.988 338.086C440.202 338.086 442.741 338.021 445.605 337.891C448.079 337.76 450.944 337.565 454.199 337.305C457.585 336.914 461.23 336.328 465.137 335.547C463.314 337.5 461.816 339.388 460.645 341.211C459.473 342.904 458.561 344.466 457.91 345.898C457.129 347.461 456.478 348.893 455.957 350.195C455.436 351.888 454.85 354.492 454.199 358.008C453.548 361.003 452.832 365.234 452.051 370.703C451.4 376.172 450.553 383.333 449.512 392.188C453.939 392.318 457.78 392.383 461.035 392.383C464.29 392.253 467.025 392.188 469.238 392.188H475.684C477.507 392.057 479.59 391.927 481.934 391.797C485.84 391.667 491.764 391.276 499.707 390.625C500.358 384.635 500.684 379.492 500.684 375.195C500.814 370.768 500.749 367.057 500.488 364.062C500.228 360.677 499.837 357.812 499.316 355.469C498.926 354.167 498.34 352.604 497.559 350.781C496.908 349.219 495.996 347.331 494.824 345.117C493.783 342.773 492.35 339.974 490.527 336.719C493.913 337.24 496.908 337.63 499.512 337.891C502.246 338.021 504.525 338.151 506.348 338.281C508.431 338.411 510.189 338.477 511.621 338.477C513.053 338.477 514.941 338.411 517.285 338.281C519.238 338.151 521.647 338.086 524.512 338.086C527.376 337.956 530.892 337.76 535.059 337.5C534.017 339.323 533.105 341.211 532.324 343.164C531.543 345.117 530.892 346.875 530.371 348.438C529.85 350.26 529.329 352.083 528.809 353.906C528.158 356.641 527.572 360.612 527.051 365.82C526.66 371.029 526.27 376.823 525.879 383.203C525.618 389.583 525.358 396.224 525.098 403.125C524.967 410.026 524.837 416.536 524.707 422.656C524.707 428.776 524.772 434.245 524.902 439.062C525.033 443.75 525.293 447.07 525.684 449.023C526.074 451.367 526.725 453.776 527.637 456.25C528.418 458.464 529.46 460.872 530.762 463.477C532.064 465.951 533.757 468.294 535.84 470.508L488.77 474.023C490.723 472.201 492.285 470.443 493.457 468.75C494.629 466.927 495.54 465.365 496.191 464.062C496.842 462.63 497.298 461.263 497.559 459.961C497.689 458.398 497.884 455.664 498.145 451.758C498.405 448.503 498.665 443.88 498.926 437.891C499.186 431.901 499.447 423.958 499.707 414.062C497.884 414.062 495.671 414.128 493.066 414.258C490.592 414.258 488.249 414.323 486.035 414.453C483.431 414.583 480.697 414.648 477.832 414.648C474.967 414.779 471.973 414.909 468.848 415.039C466.243 415.299 463.314 415.56 460.059 415.82C456.934 415.951 453.809 416.146 450.684 416.406C450.423 421.875 450.423 426.693 450.684 430.859C450.944 434.896 451.335 438.346 451.855 441.211C452.376 444.596 453.027 447.526 453.809 450C454.59 452.344 455.436 454.688 456.348 457.031C457.129 459.115 458.04 461.328 459.082 463.672C460.254 466.016 461.426 468.099 462.598 469.922C460.124 469.661 457.845 469.466 455.762 469.336C453.678 469.076 451.855 468.815 450.293 468.555C448.47 468.424 446.712 468.294 445.02 468.164C443.327 468.164 441.309 468.099 438.965 467.969C436.882 467.839 434.277 467.773 431.152 467.773C428.027 467.643 424.382 467.578 420.215 467.578C422.689 465.104 424.642 462.695 426.074 460.352C427.637 457.878 428.743 455.664 429.395 453.711C430.176 451.367 430.697 449.219 430.957 447.266C431.087 445.573 431.152 442.383 431.152 437.695C431.283 433.008 431.283 427.669 431.152 421.68C431.152 415.56 431.087 409.18 430.957 402.539C430.827 395.768 430.632 389.453 430.371 383.594C430.241 377.734 430.046 372.721 429.785 368.555C429.655 364.258 429.525 361.589 429.395 360.547C428.743 358.203 427.767 355.664 426.465 352.93C425.293 350.716 423.73 348.177 421.777 345.312C419.824 342.318 417.155 339.323 413.77 336.328Z" fill="white"/>
<defs>
<linearGradient id="paint0_linear_1481_8" x1="400" y1="0" x2="400" y2="800" gradientUnits="userSpaceOnUse">
<stop offset="0.12501" stop-color="#097CF9"/>
<stop offset="0.375005" stop-color="#8556AA"/>
<stop offset="0.625005" stop-color="#F97A12"/>
<stop offset="0.875005" stop-color="#FE315D"/>
</linearGradient>
</defs>
</svg>
